<?xml version="1.0" encoding="utf-8"?>
    <svg id="lakos-map" version="1.1" xmlns="http://www.w3.org/2000/svg" xmlns:xlink="http://www.w3.org/1999/xlink"
         viewBox="0 0 640 490">
        <style type="text/css">
            <![CDATA[
				path {
					transition: fill .6s, transform .5s	;
				  }

			  	svg a:hover path{
					fill: rgb(128, 128, 128);
					transform: 	scale(1.02);
				  }
				}
				tspan {
					font-size: 12px;
					font-family: "Open Sans",sans-serif;
					font-weight: bold;
					}

      ]]>
        </style>

        <a class="region" id="d" 
           xlink:href="https://www.lakossachsen.de/netzwerkkarte/erzgebirgskreis" target="_parent">
            <path fill="#2E75C9" stroke="#1D1D1B" stroke-width="0.2835" d="
	M190.104,292.002c-0.622,1.09-1.189,1.623-1.842,2.901c-1.317,2.574-2.158,2.187-4.21,0.132c-1.725-1.728-1.704,0.637-3.355,1.187
	c-2.761,0.918-1.593,2.669-0.46,4.943c1.546,3.104-1.253,2.456-1.908,5.076l-4.671,0.132c-0.369-1.479-1.521-3.199-1.842-4.482
	c-1.715,0-3.819,0.461-5.789,0.461v0.132c-0.206,0.068,0.796,1.437,0.921,1.648c0.61,1.033,3.603,6.34,2.105,7.185
	c-1.044,0.59-2.625-3.525-4.473-1.12c-3.611,4.7,6.605,8.503,10.591,8.503c0.26,1.044,1.107,2.39,1.908,3.297
	c0.84,0.951,0.203,4.554-0.198,5.998c-0.381,1.377-1.552,1.499-2.039,2.505c-0.498,1.03,0.066,1.493,0.066,2.571
	c0.181,0.433,1.93,2.065,2.368,2.175c-0.253,1.018-2.308,0.889-1.842,2.571c0.147,0.53-0.021,1.009-0.395,1.384
	c-0.639,0.641-2.057-1.009-2.434,0.33c-0.218,0.774-0.339,3.308-1.579,1.648c-1.298-1.736-2.243-2.769-4.539-2.769
	c-0.964,0-2.508-0.971-3.026,0.197c-0.339,0.766-1.329,2.119-1.448,2.835c-0.252,1.521,0.301,2.866-1.71,2.637
	c-0.5-0.058-1.449-0.251-1.842,0c-0.404,0.258-1.644,1.087-2.039,1.187c-0.996,0.176-2.032,0.454-2.763,1.187
	c0,1.29,1.119,2.336,1.119,3.757c-0.939,0.94-2.486,0.755-3.092,2.241c-0.376,0.925-0.8,2.657-0.855,3.626
	c-0.146,2.56,4.717,0.492,5.986,1.912c1.145,1.278,0.118,3.838-0.986,4.746c-3.133,2.576-4.574,1.095-7.895,0.264
	c-2.95-0.738-3.777,0.807-6.052,2.109l-0.921,1.516l0,0l-1.382,1.78c-0.075,0.379-1.773,1.604-2.105,1.714v0.132
	c-0.287,0.072-0.001,0.396-0.197,0.462v0.132c-0.446,0.111-1.194,1.053-1.974,1.252c-0.804,0.206-1.52,0.125-2.302,0.527
	c-1.244,0.64-4.696,2.132-4.079,3.758c0.612,1.609,1.427,1.768-0.395,3.032c-2.11,1.464-1.336,1.516,0.066,3.625
	c1.107,1.666,2.728,3.428,4.67,3.428c0,3.942,1.843,6.418,4.869,8.768l7.894,6.131l4.737,3.098c0.196,0.05,0.64,0.748,0.724,0.857
	l0.268,4.432l0,0c1.194-0.301,2.209-0.592,3.813-0.683c3.499-0.2,2.381-4.832,7.18-2.707c3.74,1.656,5.265-1.221,8.037-0.528
	c0.129,0.521,1.821,2,2.239,2.839c0.875,0.771,2.603,2.798,3.557,3.037c0.652-1.962,0.994-4.07,2.701-5.678
	c1.785-1.679,1.752-3.614,3.096-5.083c0.69-0.754,9.449-5.148,10.276-5.148c2.154,0,3.574,6.159,4.611,3.036
	c0.281-0.845,2.52-5.899,3.096-5.677c2.984,1.151,5.789,4.2,8.827,5.479c2.504,1.053,7.018,3.472,8.959,5.412
	c1.779,1.284,3.778,3.586,6.061,2.839c4.622-1.512,6.529-2.619,9.025-6.535c0.796-1.249,2.663-2.569,3.82-3.564
	c2.38-2.047,1.562-1.584,1.251-3.763c-2.78-1.391,1.313-9.729,1.713-11.815c0.911-4.75-0.005-5.542,4.348-2.839
	c1.683,1.046,6.345,2.998,8.103,1.782c2.74-1.896,7.011-9.874,8.366-3.763c0.485,2.186,9.184,2.435,11.265,1.914l0.066-0.065
	c0-1.425-1.222-3.763,1.383-3.763c2.49-2.751,3.002-8.591,3.741-12.129c0.693-3.324,4.08-7.547,4.923-10.918l5.513,0.132
	c0.027,0.081,0.05,0.104,0.131,0.132c0,1.442,1.083,7.067,3.216,5.524c2.051-1.483,5.907-0.895,5.907-4.144
	c0-2.771-0.873-3.625,1.903-5.196c3.418-1.935,8.188-4.159,6.629-8.221c-1.076-2.805-0.664-7.717,3.151-4.407
	c2.156,1.872,2.889,2.611,3.478,5.328c0.704,3.245,3.952,4.859,6.892,5.458c3.667,0.749,2.37,5.649,7.022,0.987
	c1.627-2.251,3.366-5.551,5.513-7.104l0,0l-1.349-1.643c-0.087-0.084-0.579-0.656-0.855-0.726c0.054-0.161,2.812-3.235,0.395-2.308
	c-2.206,0.848-4.319-1.341-5.197-2.834c-0.698-1.187-4.458-1.052-5.789-1.385c-0.244-0.976-0.198-2.772-0.198-3.823
	c-0.544-0.136-1.417-0.537-2.171-0.725l-0.855-3.626c-1.265,0-2.01,2.655-3.026-0.659c-0.673-2.193-2.359-5.889-4.671-6.657
	c-1.342-0.447-0.921-6.164-0.79-6.197c0.562-2.246,0.758,0.408,0-2.637c-0.343-1.378-1.207-2.837-1.579-3.955
	c-2.659,0-5.342,1.151-7.565,2.637c-0.955,0.639-1.381,2.093-2.631,1.187c-2.758-1.998-1.278-0.506-4.144-0.065
	c-2.145,0.329-6.421-0.557-3.487-3.494c1.978-1.98-0.259-4.545-1.645-5.933c-0.878-0.073-2.108-0.103-2.565-0.791
	c-1.737,0-1.607,1.622-3.486-0.264c-1.698-1.703-4.354-0.477-6.118-2.109c-0.713-0.66-6.23-1.436-6.381-0.527
	c-0.352,0.101-0.854,1.187-1.315,1.187c-0.031,0.094-0.702,0.143-0.855,0.197c-0.339,0.122-0.771,0.523-1.053,0.594
	c-0.065,0.264-0.813,0.96-0.987,0.989c-0.618,2.165-3.979-0.594-5.591-0.594c-0.336-1.348-0.165-3.925-1.448-4.813
	c-1.521-1.053-2.313,1.179-3.157,1.846c-1.24,0.98-3.798,0.611-4.934-0.527c-1.16-1.162-1.038-3.621-2.895-4.416l-1.381-1.055l0,0
	l-4.407,6.987c-0.686,1.511-1.824,2.35-2.171,4.087c-1.619,0-3.301-2.769-5.197-2.769c0,1.255-0.081,3.158-0.987,4.087l-2.96,3.032
	c-1.328,0.189-1.701,1.341-3.29-0.065c-1.594-1.413-2.304,0.625-2.829,2.043c-1.384,3.742-6.654,0.975-8.026-1.252
	c-1.882-3.057-0.483-2.361-3.881-3.494v-0.461c3.696-1.232,3.144-3.008,2.171-5.934c-1.326,0-1.987,1.714-3.486,1.714l-0.066-0.065
	c0-0.87,1.563-3.535,0.855-3.89c-1.53-0.767-3.409-0.292-4.868-1.582c-1.98-1.75-5.566,1.457-7.565,2.637
	C193.996,293.728,193.445,293.516,190.104,292.002L190.104,292.002z"/>
            <text transform="matrix(1 0 0 1 185 340)">
                <tspan fill="#FFFFFF" font-size="12px" font-family="Open Sans,sans-serif" font-weight="bold">Erzgebirgskreis</tspan>
            </text>
        </a>


		<a class="region" id="b" 
		   xlink:href="https://www.lakossachsen.de/netzwerkkarte/vogtlandkreis" target="_parent">
			<path fill="#9DC200" stroke="#1D1D1B" stroke-width="0.2835" d="
	M151.757,409.75l-0.268-4.432c-0.083-0.109-0.527-0.808-0.724-0.857l-4.737-3.098l-7.894-6.131c-3.025-2.35-4.869-4.825-4.869-8.768
	c-1.942,0-3.563-1.762-4.67-3.428c-1.402-2.109-2.176-2.161-0.066-3.625c1.822-1.265,1.007-1.423,0.395-3.032
	c-0.618-1.626,2.834-3.118,4.079-3.758c0.783-0.402,1.499-0.321,2.302-0.527c0.779-0.199,1.528-1.141,1.974-1.252v-0.132
	c0.196-0.065-0.089-0.39,0.197-0.462v-0.132c0.332-0.11,2.03-1.335,2.105-1.714l1.382-1.78l0,0l-2.829-1.779
	c-0.644-0.646-1.603-1.956-1.974-2.703c-0.039-0.077-0.421-0.71-0.526-0.396c-1.364,0-2.433,2.637-4.671,2.109
	c-1.586-0.374-2.992-2.477-3.815-2.57c-0.947-0.108-1.394,0.679-2.302,0.329c-0.869-0.334-2.143-2.25-2.566-3.098
	c-0.821-1.648,0.15-3.825,0.461-5.538c0.323-1.781,0.304-5.075,2.697-5.075c0-1.641-4.472-4.007-5.92-4.417
	c-3.21-0.907,1.665-4.727,0.46-5.933c-0.632-0.633-1.936-2.71-2.303-2.966c-0.597-0.418-1.792-0.469-2.17-0.989
	c-1.26-1.729-4.121-2.784-3.553-5.405c0.677-3.122,0.105-1.208-2.105-1.582c-2.464-0.418-2.155,0.731-3.552,2.241
	c-1.986,2.146-2.955-0.992-2.629-2.736l-2.578-0.875l0,0c-0.237,0.75-0.506,1.554-0.252,2.293c0.877,2.552-1.583,1.8-1.71,2.438
	c-0.417,0.104-0.59,1.799-0.987,2.241c-1.524,1.705-2.322,2.968-4.671,3.692c-1.775,0.547-1.143,3.561-2.894,3.428
	c-1.817-0.139-2.363,0.006-4.276,0.593c-1.226,0.377-2.998,0.276-4.145-0.329c-2.073-1.095-0.757-5.136-5.018-1.536
	c-0.847,0.716-1.256,2.364-1.394,3.887c-0.1,1.111-0.084,1.841-0.55,2.535c-1.305,0.586-2.955-4.82-5.866-4.82
	c-0.65,0-0.294,3.153-0.46,3.691c-0.417,1.353-0.81,2.985-1.579,4.219c-1.227,0.791-8.16,2.569-5.592,5.142
	c1.735,1.738,7.24,0.178,8.42,1.715c1.876,2.441-1.525,4.238-3.684,3.823c-0.557-0.107-2.149-0.832-2.434-0.462
	c-3.399,4.426-9.649-7.241-10.064,1.45c-0.314,6.576-1.634,4.378-6.842,5.472c-2.396,0.503-4.568-4.592-4.013-6.395
	c0.514-1.667,2.629-3.229,3.223-5.537c1.098-4.264-4.658-1.022-3.552-5.208c0.653-2.471,1.291-5.217-0.066-7.251
	c-1.383,0-1.923-1.156-3.026-1.055c-1.359,0.126-4.28,5.367-4.605,6.658c-1.149,4.564-1.385,2.811-4.736,4.087
	c-1.971,0.75-4.861,6.05-4.604,7.977c0.573,4.308-1.419,4.691-4.737,5.801c-1.182,0.61-9.963,1.198-7.302,4.087
	c1.102,1.196,2.542,2.848,3.026,4.417c0.792,2.568,1.759,4.396,4.736,3.361c0.628-0.218,2.39-4.817,3.487-3.032
	c0.738,1.202,0.526,1.939,0.526,3.362c0,3.091,6.578,6.328,6.578,10.086c-0.127,0.031-0.166,0.07-0.197,0.197
	c-0.063,0.016-0.954,0.626-0.987,0.725c-3.348,0-1.184,4.01-1.184,6.263c0,2.572-3.227-4.007-5.263-1.055
	c-1.531,2.221-8.736,4.214-4.276,6.592c1.292,0.689,3.552,0.462,4.605,1.517c0.994,0.995,1.285,2.677,1.776,3.823l0,0l2.368,2.241
	c1.087,2.175,1.787,2,0.987,4.746c-1.078,3.706,2.613,0.938,4.21,1.318c2.535,0.604,3.285,7.82,2.434,9.756
	c-0.458,1.043-1.344,2.027-0.724,3.165c1.587,2.91,7.083,1.416,8.815,4.219c0.806,1.304,2.332,3.025,3.75,3.691
	c2.188,1.027,3.624-1.905,5.394-1.121c1.008,0.446,1.486,0.678,2.566,0.462c0.051-0.207,0.296-0.561,0.46-0.726
	c0.124,0.031,0.205,0.102,0.329,0.132c0.103,0.518,0.785,1.568,1.315,1.78c0.064,0.257,1.31,0.533,1.515,0.593l3.533,2.15l0,0
	c0.215-0.407,0.497-0.708,0.881-0.804c0.06-0.236,0.656-0.518,0.725-0.727c2.535-0.361,5.682-1.056,8.366-1.056
	c0.867,2.607,4.478,4.458,4.15,7.327c-0.18,1.575,1.12,2.193,1.12,3.433c0,0.781-0.392,4.407,0.461,4.621
	c0.499,1.993,7.356,0.701,8.696,0.329c2.013-0.559,3.47,4.486,3.03,5.81c-1.299,0-2.132-0.726-3.359-0.726
	c-0.95,2.851-1.109,3.605,1.845,5.742c1.39,1.005,6.982,4.172,6.982,5.017c-0.114,0.039-0.179,0.221-0.197,0.33
	c-1.229,0.308-1.227,4.011-1.317,5.017c-0.671,1.135-1.77,1.479-2.504,2.707c0.079,0.104,0.066,0.067,0.066,0.198
	c0.596,0.148,1.266,1.191,1.778,1.32c0.045,0.313,3.965,5.713,4.348,5.809c0.289,1.156,3.688-3.276,4.281-3.828
	c4.664-4.343-2.187-5.184-0.395-8.779c0.918-1.844,0.922-1.311,0.922-3.697c0-1.593-0.954-3.438-0.725-4.818h0.132
	c0.514,0.771,7.417,1.722,6.324-1.32c-0.574-1.598-2.477-7.203,0.396-7.921c0.191-1.347,0.76-2.521,1.054-3.697
	c0.147-0.036,0.182-0.161,0.329-0.198c0.046-0.187,2.828-1.914,3.293-1.914c2.081,0,2.58-1.479,3.689-1.849
	c0-3.956-2.483-3.828,0.791-7.657c3.26-1.369,4.167-2.716,6.061-6.072c0.718-1.274,3.887-5.018,5.599-4.159
	c2.064,1.035,2.75,3.005,3.952,0.066c0.872-2.132,0.128-4.434,0.988-6.535c0.992-2.423,3.408-6.467,6.587-6.997l7.905-1.32
	C150.502,410.057,151.153,409.902,151.757,409.75L151.757,409.75z"/>
			<text transform="matrix(1 0 0 1 35 401)">
				<tspan fill="#FFFFFF" font-size="12px" font-family="Open Sans,sans-serif" font-weight="bold">Vogtlandkreis</tspan>
			</text>
		</a>
		<a class="region" id="c" 
		   xlink:href="https://www.lakossachsen.de/netzwerkkarte/zwickau" target="_parent">
			<path fill="#DB5821" stroke="#1D1D1B" stroke-width="0.2835" d="
	M190.104,292.002c-0.622,1.09-1.189,1.623-1.842,2.901c-1.317,2.574-2.158,2.187-4.21,0.132c-1.725-1.728-1.704,0.637-3.355,1.187
	c-2.761,0.918-1.593,2.669-0.46,4.943c1.546,3.104-1.253,2.456-1.908,5.076l-4.671,0.132c-0.369-1.479-1.521-3.199-1.842-4.482
	c-1.715,0-3.819,0.461-5.789,0.461v0.132c-0.206,0.068,0.796,1.437,0.921,1.648c0.61,1.033,3.603,6.34,2.105,7.185
	c-1.044,0.59-2.625-3.525-4.473-1.12c-3.611,4.7,6.605,8.503,10.591,8.503c0.26,1.044,1.107,2.39,1.908,3.297
	c0.84,0.951,0.203,4.554-0.198,5.998c-0.381,1.377-1.552,1.499-2.039,2.505c-0.498,1.03,0.066,1.493,0.066,2.571
	c0.181,0.433,1.93,2.065,2.368,2.175c-0.253,1.018-2.308,0.889-1.842,2.571c0.147,0.53-0.021,1.009-0.395,1.384
	c-0.639,0.641-2.057-1.009-2.434,0.33c-0.218,0.774-0.339,3.308-1.579,1.648c-1.298-1.736-2.243-2.769-4.539-2.769
	c-0.964,0-2.508-0.971-3.026,0.197c-0.339,0.766-1.329,2.119-1.448,2.835c-0.252,1.521,0.301,2.866-1.71,2.637
	c-0.5-0.058-1.449-0.251-1.842,0c-0.404,0.258-1.644,1.087-2.039,1.187c-0.996,0.176-2.032,0.454-2.763,1.187
	c0,1.29,1.119,2.336,1.119,3.757c-0.939,0.94-2.486,0.755-3.092,2.241c-0.376,0.925-0.8,2.657-0.855,3.626
	c-0.146,2.56,4.717,0.492,5.986,1.912c1.145,1.278,0.118,3.838-0.986,4.746c-3.133,2.576-4.574,1.095-7.895,0.264
	c-2.95-0.738-3.777,0.807-6.052,2.109l-0.921,1.516l0,0l-2.829-1.779c-0.644-0.646-1.603-1.956-1.974-2.703
	c-0.039-0.077-0.421-0.71-0.526-0.396c-1.364,0-2.433,2.637-4.671,2.109c-1.586-0.374-2.992-2.477-3.815-2.57
	c-0.947-0.108-1.394,0.679-2.302,0.329c-0.869-0.334-2.143-2.25-2.566-3.098c-0.821-1.648,0.15-3.825,0.461-5.538
	c0.323-1.781,0.304-5.075,2.697-5.075c0-1.641-4.472-4.007-5.92-4.417c-3.21-0.907,1.665-4.727,0.46-5.933
	c-0.632-0.633-1.936-2.71-2.303-2.966c-0.597-0.418-1.792-0.469-2.17-0.989c-1.26-1.729-4.121-2.784-3.553-5.405
	c0.677-3.122,0.105-1.208-2.105-1.582c-2.464-0.418-2.155,0.731-3.552,2.241c-1.986,2.146-2.955-0.992-2.629-2.736l-2.578-0.875l0,0
	c0.142-0.45,0.274-0.881,0.274-1.267l-0.066-0.066c-5.532,0-9.936,0.325-11.907-5.801c-0.365-1.462-1.092-4.416,0.329-5.537
	c1.91-1.508,1.894-2.155,1.25-4.087c-0.4-1.203-1.82-0.369-2.829-0.132c-2.346,0.552-3.683,0.091-3.815-2.505
	c-0.099-1.933-1.31-5.991,0.855-6.592c1.37-0.381,3.399,0.134,4.802,0.197c3.998,0.183,5-5.44,5-8.372
	c-0.226,0-5.526,3.119-5.526,1.055c0-1.929,0.699-4.276-1.184-5.801c-0.548-0.443-3.33-2.833-1.71-3.164
	c0.789-0.16,3.976-0.449,4.67-0.197c1.067,0.386,1.355,1.645,2.434,1.977c1.854,0.572,1.79-5.18,2.697-6.262h0.658
	c0.272,0,0.464,0.161,0.724,0.197c0.036,0.144,0.354,0.335,0.46,0.527c0.106,0.194,0.181,0.619,0.197,0.857
	c0.011,0.151-0.011,0.31,0,0.461c0.005,0.075,0.047,0.126,0.066,0.198c0.144,0.564-0.551-0.399,0.526,0.726
	c0.127,0.031,0.165,0.07,0.197,0.197c0.467,0.066,0.586,0.527,1.184,0.527c0.474,0,1.264,0.115,1.71,0
	c1.289-0.331,2.142-1.941,3.486-2.043c1.337-0.103,1.452-0.707,2.105-1.912c0.116-1.048-0.066-2.049-0.066-3.099l0.066-0.197
	c0.111-0.139,0.199-0.266,0.329-0.396c0.163-0.041,0.301-0.184,0.46-0.264c0.161-0.081,0.295-0.088,0.46-0.132
	c0.543-0.145,1.07-0.256,1.645-0.396c0.775-1.089,2.289-2.062,3.553-1.648c1.9,0.622,2.378-0.469,3.881-0.593
	c1.61-0.133,4.13,4.242,6.645,3.823c0.426-1.708,1.776-2.581,1.776-4.681c0-1.984,1.381-3.3,1.381-4.746
	c0-2.574,5.191-6.46,7.894-6.46c3.119,0,3.16-2.319,3.816-4.944c0.171-0.021,0.958-0.479,1.052-0.197c1.688,0,1.786,4.212,5,2.307
	c4.255-2.521,1.083-0.795,5.328,0.264c3.71,0.926,8.75-4.298,11.315-1.911c2.172,2.021,4.499-5.224,4.145-5.801l0,0l3.455,1.318
	c0.355,0.822,3.917,5.625,5.031,3.955c0.831,0.118,1.912,0.941,2.895,1.187c1.508,0.376,2.053-0.581,3.158-0.857
	c0.107-0.432,1.28,0.177,1.513,0.198c1.458,0.135,0.977,2.495,1.842,3.361c1.472,1.475,3.472,3.184,4.079,5.01
	c0.244,0.735,0.913,1.989,1.645,2.241c0.483,0.166,2.432-0.204,2.565,0.33c0.177,0,0.178,0.094,0.329,0.132
	c0.021,0.063,0.132,0.176,0.197,0.264l2.763,0.923l0,0c0,1.901,0.026,4.787-1.382,6.196c-0.786,0.788-1.91,1.288-2.5,2.176
	c-1.179,1.773-1.388,3.278-3.487,4.219c-0.796,0.356-1.509,0.64-2.368,0.33c-0.695-0.252-1.593-1.319-2.368-1.319
	c0,0.134,0.036,0.099-0.065,0.132c0,0.699-0.198,1.362-0.198,2.11c4.014,1.001,5.763,3.501,6.513,7.251L190.104,292.002
	L190.104,292.002z"/>
			<text transform="matrix(1 0 0 1 104 310)">
				<tspan fill="#FFFFFF" font-size="12px" font-family="Open Sans,sans-serif" font-weight="bold">Zwickau</tspan>
			</text>
		</a>
        <a class="region" id="h" 
           xlink:href="https://www.lakossachsen.de/netzwerkkarte/nordsachsen" target="_parent">
            <path fill="#2E75C9" stroke="#1D1D1B" stroke-width="0.2835" d="
	M76.591,120.726l4.903,0.149l6.052-3.955l0,0c1.009-3.595-1.005-5.781,1.974-8.768c1.505-1.509,1.381-0.675,1.381-2.703
	c0-1.378,1.579-1.851,1.579-3.494c-0.798-0.266-2.171-2.282-2.171-3.23l0.066-0.066c0.565-0.142,2.563-0.185,2.697-0.725
	c0.087-0.029,0.104-0.088,0.131-0.198c-1.49-1.117-1.803-0.947-1.315-2.9c0.405,0,1.698,0.865,2.5,0.989
	c4.968,0.768,11.407-2.501,15.656,0.198c1.378,0.875,1.488,2.471,3.224,2.835c2.765,0.581,6.973-1.907,6.973-4.812
	c0-2.617,1.24-2.242,3.092-1.78c1.243,0.31,2.571-0.463,2.829-1.714c0.132-0.64,1.584-0.613,2.171-0.923
	c0.82-0.433,2.027-3.31,3.092-2.241c0.775,0.778,1.072,3.098,2.566,3.098c0.839-0.052,1.848,0,2.697,0
	c0,0.589-0.567,5.24-1.579,4.681c-0.459-0.254-2.235-1.733-2.631-1.252c-0.551,0.667-2.007,0.25-2.302,1.318
	c-0.32,1.153,1.29,2.58,1.579,3.625c0.167,0.601,0.215,3.967-0.263,4.087c-0.185,0.925,0.029,1.198,0.263,2.043
	c0.321,1.161,1.305,0.694,1.447,1.121h0.131l0.066,0.066c0,1.165-1.488,3.598-0.658,4.68c0.496,0.646,1.268,0.938,1.645,1.648
	c0.94,1.774,1.504-0.323,2.697,0.396l1.35,0.362l0,0c1.196-0.689,2.608-1.938,3.781-2.801c0.417-0.308,1.236-1.935,1.776-1.055
	c2.019,3.286,7.014-2.295,9.341-1.713c0.03,0.121,0.011,0.102,0.131,0.131c0.24,1.2,1.291,1.569,1.908,0.33
	c0.396-0.793,0.017-1.714,1.25-1.714c1.914,0,3.487,0.739,3.487-1.912c0-1.325,1.645-1.917,1.645-3.23
	c0-2.944,0.552-1.548,2.565-2.109c0.767-0.214,1.568,0.564,2.171,0.132c0.796-0.572,1.024-1.499,0.066-1.978
	c-0.364-1.456,1.447-2.476,1.447-3.889c-0.451-0.15-1.066-0.379-1.645-0.462c-0.267-1.067-0.066-1.694-0.066-2.834
	c0.768-1.134,1.465-2.326,2.434-3.296c0.613-0.614,1.268-0.641,1.974-0.198c0.951,0.597,3.329-0.595,4.868,0
	c1.483,0.573,2.994,0.926,4.013-0.593c0.477-0.711,0.96-1.57,1.908-1.648c1.055-0.087,2.48,0.32,3.618,0.527
	c1.586,0.29,2.989-0.746,4.408-0.923c0.205-0.239,0.809-0.978,1.118-1.055c1.049-0.797,2.806-2.9,4.079-2.9
	c0.575,1.007,1.526,1.328,2.565,1.648c2.563,0.79,1.587,3.296,4.737,3.955c1.681,0.352,3.763,1.252,5.394,1.252
	c1.355,0,2.766-0.915,3.881,0.33c0.491,0.548,0.529,1.447,1.118,1.978c1.789,1.607,5.59,1.306,6.25,4.614
	c0.537,2.386,2.54,2.121,4.604,2.637c0.164,0.824-0.379,1.315-1.184,1.516c-0.28,1.12,2.417,4.291-0.131,5.142
	c-1.691,0.565-2.872-1.516-4.474-1.516c-1.951,0-0.194,2.504,0.132,3.889c0.132,0.563,0.129,3.658,0.46,3.889
	c0.8,0.558,1.88-0.386,2.434,0.725c0.739,1.483,3.313,1.69,1.645,3.362c-1.046,1.048-0.219,3.365-1.974,2.438
	c-2.497-1.318-2.658,0.753-4.21,2.308c-1.117,1.118,0,5.478,0,7.119c-0.121,0.03-0.102,0.011-0.132,0.132
	c-3.854,0.963-4.713,1.899-5.855,5.405c-1.042,3.199,5,3.223,5,7.251c0.508,2.549,2.329,0.994,3.092,2.703
	c0.54,1.209,2.014,1.165,3.157,1.45c0.127,0.509,0.133,1.456,0,1.978c-0.308,1.205-1.071,1.706-0.657,3.032
	c0.625,2.005-2.384,3.453-1.776,4.812c0.721,1.615-1.775,2.184-1.25,4.285c0.11,0.027,1.228,0.475,1.316,0.527l2.5,1.384l0,0
	c1.961-0.761,4.172-2.07,6.118-2.637c1.063-0.31,4.275,0.607,5.525,0.857c0.15,0.603,0.911,1.409,1.053,1.978
	c0.295,0.074,0.551,0.418,0.855,0.461c0.72,1.8,4.014,4.482,5.921,4.482c4.289,0,2.308-1.357,3.355-4.087
	c0.682-1.778,2.062,0.345,3.421,0.066c0.387-0.079,2.559-1.264,2.697-1.187c0.546,0.308,0.242,1.516,1.381,1.516
	c0.501,0,3.804-0.108,4.079-0.264c0.141-0.08-1.048-3.296,0-3.296c0.338,1.014,6.934,2.208,7.499,0.066
	c0.769-2.909,5.184,0.454,5.855-2.241c0.134,0,0.292,0.046,0.329-0.066h2.04l2.368-1.253l0,0c0.056-0.395,0.46-0.782,0.46-1.186
	l0.066-0.066c0.12-0.03,0.143-0.102,0.263-0.132c0.027-0.082,0.05-0.105,0.131-0.132c0-0.134-0.036-0.098,0.066-0.132
	c0-0.135-0.046-0.292,0.065-0.33c0-0.298-0.065-0.526-0.131-0.792c-0.128-0.042-0.003-0.023-0.131-0.065v-0.132
	c-0.08-0.026-0.298-0.469-0.329-0.593c-3.234-0.809,2-5.679,2.171-6.197c0.362-1.092-3.353-6.526,0.263-6.526
	c0.55-2.21-1.602-6.072-1.842-8.57c-0.27-2.798,1.329-7.132,0.79-9.294c-0.212-0.053-1.47-0.816-1.513-0.989
	c-1.044-0.261,0.412-2.17,0-2.307c0-0.478-0.924-0.713-1.315-0.792l-0.066-0.065c-0.357-1.433,3.095-1.432,1.25-3.494
	c-1.309-1.464-2.993-0.909-3.355-2.967l4.216-8.629l0,0c0.086-1.456,0.732-2.733,1.31-4.818c1.364-4.924-7.963-2.545-4.079-5.208
	c5.726-3.923-0.294-6.24-1.513-8.635c-0.571-1.123-1.177-2.119-0.724-3.757c0.198-0.716,0.18-2.372-0.395-3.494
	c0.726,0.307,2.78,0.967,3.158-0.264c0.306-0.998,0.159-2.407,0.526-3.23c0.674-1.509,1.645-1.9,1.645-3.823
	c0-1.507-1.283-3.222-2.04-4.482c-0.574-1.784-1.513-3.125-1.513-5.076c0-5.273-1.938-2.229-4.934-4.482
	c-2.022-1.521-4.318-1.459-3.289-4.614c0.738-2.261,4.623-8.042,0.132-8.042c-3.172,0-4.318-6.085-7.302-5.339
	c-0.458,1.069-2.487,2.494-3.684,2.175c-2.333-0.62-2.237-2.441-3.815-3.494c-0.067-0.472-1.122-3.016-1.514-3.296l-2.894-4.746l0,0
	c-1.217,0.858-4.345,3.54-5.789,1.45c-1.203-1.74-0.155-4.57-1.185-6.526c-0.516-0.981-3.543-1.449-4.604-1.714
	c-5.491-1.369-0.43,4.747-5.526,4.747c-1.955,0-2.901,4.099-4.253,3.989c-0.447-0.561-0.889-1.199-1.338-1.945
	c-0.748-1.24-1.089-1.229-2.96-0.593c-1.223,0.415-2.636,0.929-3.947,0.593c-2.252-0.578,0.114-5.04-0.197-6.395
	c-0.284-1.237-4.661,0.37-5.46,0.593c-0.294,0.082-0.578,0.143-0.917,0.181c-0.43-0.973-0.465-2.313-0.465-3.081
	c-1.361-0.976-1.751-2.501-3.684-3.098c-1.185-0.366-1.612,0.79-1.842,1.714c-0.38,1.527-3.732,1.852-5.131,2.439
	c-2.398,1.007-2.671,2.017-4.276,3.625c-6.51,10.151-12.8-7.544-20.262,1.187c-4.201,4.916-6.629,12.261-13.485,13.975
	c0-1.694,2.302-2.591,2.302-4.812c0-3.183-4.507,1.719-5.657,2.307c-2.184,1.117-1.886-2.807-4.145-0.396
	c-0.892,0.952-1.988,2.891-3.224,3.362c-1.978,0.755-2.93-0.33-5.075,0.57c-1.429-0.228-2.835-0.363-3.871-0.57
	c-2.54-0.508-5.74,2.307-8.42,2.307c-2.45,0-3.448-1.278-4.518-2.316c-0.477,0.263-0.967,0.774-2.39,1.13
	c-0.546,2.187-1.827,2.14-2.237,4.681c-0.365,2.262,0.215,3.925-2.631,2.637c-4.342-1.966-6.636-0.669-11.381-0.461
	c-3.756,0.164-4.429,2.408-6.841,4.153c-1.271,0.919-3.75,1.79-5.329,2.769c-1.419,0.88-2.967,1.002-4.605,1.318
	c-2.397,0.463-2.861-4.688-4.407-1.187c-1.034,2.34-2.824,3.644-4.802,5.405c-8.177,5.37-2.04,10.137-2.04,17.469
	c0,3.626-5.662-0.736-5.394,3.428c0.128,1.99-0.5,2.475-2.302,3.428c-0.925,0.488-1.967,0.734-2.895,1.252
	c-0.516,0.288-1.209,1.513-0.263,1.648c0.608,1.068,1.707,1.922,2.368,2.966c0.587,0.929,0.679,2.163,1.25,3.164
	c2.509,0.358,4.456,4.155,3.881,6.46c-0.526,0.89-0.36,0.556-0.395,0.659c-2.219,0.555-2.68,2.306-2.236,4.351
	c0.396,1.826-0.458,4.634,0.395,6.196c1.626,2.983,2.302,5.653,2.302,9.097C76.1,118.18,76.575,119.545,76.591,120.726
	L76.591,120.726z"/>
            <text transform="matrix(1 0 0 1 145 70)">
                <tspan fill="#FFFFFF" font-size="12px" font-family="Open Sans,sans-serif" font-weight="bold">Nordsachsen</tspan>
            </text>
        </a>

        <a class="region" id="i"
           xlink:href="https://www.lakossachsen.de/netzwerkkarte/meißen" target="_parent">
			<path fill="#DB5821" stroke="#1D1D1B" stroke-width="0.2835" d="
	M384.035,171.238c-1.277,0.109-2.507-0.198-3.816-0.198c0,1.31,0.648,3.027,0.987,4.351c0.692,2.707,2.5,3.111,2.5,6.592
	c0,2.527-1.844,2.241-3.882,2.241c-0.862,0-3.99-1.424-4.407-1.055c-1.053,0.933-1.177,5.711-2.303,6.987
	c-0.856,0.971-2.697,3.38-2.697,4.68c3.001,0.749,0.199,5.968-2.565,2.703c-1.687-1.993-2.962,0.921-5.328-0.263
	c-2.048-1.026-2.939-2.357-5.526-2.505c-1.537-0.088-5.867,0.971-4.868,2.703c1.059,1.837-1.539,4.191-1.973,5.933
	c-0.409,0.082-0.629,0.499-0.921,0.791l-1.135,1.912l0,0l-2.023,0.857c-2.993,0-5.824,1.252-9.078,1.252
	c-2.24,0-7.523-3.17-8.749-1.45c-1.61,0.23-3.214,2.307-5.065,2.307c-1.524,0-1.948-0.549-3.618-0.132
	c-0.569,1.328-0.68,1.919-0.789,3.362c-0.062,0.819-1.745,2.212-2.237,2.834l0,0l-3.618-0.725c-2.619-1.315-5.39-4.417-8.486-4.417
	c-2.64,0-7.102,4.35-9.736,5.669c-2.294,1.149-4.632,0.534-6.973,1.978c-1.417,0.875-5.747,5.801-7.039,5.801l-0.066-0.066
	c-0.564-2.258,1.382-3.393,1.382-5.471c0-2.262,4.081-4.036,3.355-6.395c-0.511-1.66-3.208-3.805-3.026-5.076
	c3.966-0.793,1.908-3.854,1.908-6.065c0-1.874,0.603-5.446-0.46-6.921c-0.595-0.825-4.768-1.633-1.513-2.637
	c2.258-0.696,2.096-3.867,1.908-6.064c0-1.853-0.255-3.349,0.263-5.01c0.356-1.142-0.937-3.157-1.184-4.153
	c-1.454,0-2.026-0.986-3.092-1.252c-0.192-1.345-2.789-3.239-3.947-3.625c0-1.369,0.33-2.842,0.066-4.219
	c-0.205-1.071-0.721-2.421-0.855-3.362c-0.22-0.031-2.109-1.666-2.171-1.912h-0.197c-0.069-0.207-0.197-0.18-0.197-0.527
	c0.615-0.154,2.115-1.586,2.895-1.846c0-1.252-0.876-1.686-1.25-2.834c-0.348-1.068-0.245-2.226-0.658-3.296l0,0
	c0.056-0.395,0.46-0.782,0.46-1.186l0.066-0.066c0.12-0.03,0.143-0.102,0.263-0.132c0.027-0.082,0.05-0.105,0.131-0.132
	c0-0.134-0.036-0.098,0.066-0.132c0-0.135-0.046-0.292,0.065-0.33c0-0.298-0.065-0.526-0.131-0.792
	c-0.128-0.042-0.003-0.023-0.131-0.065v-0.132c-0.08-0.026-0.298-0.469-0.329-0.593c-3.234-0.809,2-5.679,2.171-6.197
	c0.362-1.092-3.353-6.526,0.263-6.526c0.55-2.21-1.602-6.072-1.842-8.57c-0.27-2.798,1.329-7.132,0.79-9.294
	c-0.212-0.053-1.47-0.816-1.513-0.989c-1.044-0.261,0.412-2.17,0-2.307c0-0.478-0.924-0.713-1.315-0.792l-0.066-0.065
	c-0.357-1.433,3.095-1.432,1.25-3.494c-1.309-1.464-2.993-0.909-3.355-2.967l4.216-8.629l0,0c-0.051,0.874,0.099,1.812,0.586,3.026
	c1.234,3.077,5.182,0.131,7.565,1.45c0.396,0.219,0.688,1.105,0.837,2.135c0.729,0.534,1.901,0.965,2.649,0.766
	c2.358-0.626-3.682-5.273-0.855-5.273c1.563,0,2.612,0.538,4.013-0.264c0.626-4.394,7.244-6.729,10.854-8.24
	c1.275-0.533,2.047-1.742,3.224-1.978c0.767,0.574,3.288,3.67,4.079,2.175c1.088-2.054-0.348-3.73,0.987-5.603
	c0.713-0.079,2.9-2.422,3.092-1.846c0.428,0.061,2.628,3.688,3.289,4.351c1.965,1.969,0.25,2.854,1.184,4.417
	c0.13,0,0.093-0.013,0.197,0.065c1.469-0.293,4.124-2.545,4.671-1.516c1.478,2.784,2.948,0.997,4.473,1.846
	c1.106,0.616-0.392,2.717-0.197,3.692c3.666,0.916,6.925,0.438,9.604,3.23c2.312,2.316-0.905,7.977,5.131,7.977
	c1.596,0,7.168-6.405,8.683-2.242c1.11,3.051,3.375,3.428,6.447,3.428c3.586,0,6.997,1.883,9.21-1.451
	c1.545,0,1.667,2.085,2.763,2.176c0.793,0.065,2.109-1.318,2.763-0.725c2.724,2.474,5.392,3.15,9.144,1.714
	c1.185-0.454,3.92-3.477,4.605-1.055c1.492,5.275,2.43,0.531,4.868-0.461c3.45-1.253,4.219,1.582,7.499-1.977l0,0l3.092,3.757
	c0.665,2.297,2.171,5.463,2.171,7.778c-0.728,0-3.628-0.54-4.276-0.923c-1.574-0.929-0.605,0.58-0.854,1.582
	c-0.475,1.909-1.445,4.345-2.5,5.933c-0.399,0.601-2.96,3.798-2.96,4.219c0.615,0.154,2.171,5.05,2.171,5.867
	c0,1.096-1.803,2.235-0.79,3.691c0.789,1.136,5.629,1.688,2.632,2.769c-1.795,0.647-1.097,3.54-1.447,4.944
	c-1.789,0-3.026-0.698-3.026,1.583c0.656,0.219,2.145,1.925,2.697,2.109c0,0.546-0.979,2.622-1.25,3.164
	c-0.55,1.103-3.063,0.083-3.749-0.33c0.403,0.294,0.093,0.476-0.198,0.791c-0.164,0.178-0.343,0.531-0.592,0.593
	c-0.023,0.094-0.444,0.42-0.526,0.461c-0.053,0.211-1.298,0.807-1.578,1.055c-1.128,0.997,0.063,1.713,0.854,2.241
	c1.19,0.795,0.27,1.475,0.526,2.505c0.554,0.138,1.325,0.597,1.908,0.856c0.542,0.241,0.789,1.009,0.789,1.582
	c-0.274,0.091-0.626,0.595-1.118,0.725c-1.683,0.446-2.324,1.129-3.224,2.571L384.035,171.238L384.035,171.238z"/>
            <text transform="matrix(1 0 0 1 305 157)">
                <tspan fill="#FFFFFF" font-size="12px" font-family="Open Sans,sans-serif" font-weight="bold">Meißen</tspan>
            </text>
        </a>
        <a class="region" id="j"
           xlink:href="https://www.lakossachsen.de/netzwerkkarte/sächsische-schweiz-osterzgebirge"
           target="_parent">
            <path fill="#BC8D11" stroke="#1D1D1B" stroke-width="0.2835" d="
	M348.101,206.109c0.483,1.179,0.763,4.654,1.661,5.208c1.528,0.943,2.631,0.38,2.631,2.571c0,3.512,10.618,1.78,12.828,1.78
	c0,1.11-1.358,2.272-0.526,3.625c1.063,1.731,3.261,1.853,4.539,4.285c1.156,2.2,4.793,0.2,6.381-0.198
	c3.562-0.892,5.068,2.045,8.486,2.9c2.013,0.504,2.594,3.634,5.197,4.285c0,3.815,2.56,1.494,5.131,2.703
	c1.465,0.689,2.598-0.699,3.881-1.055c0.911-0.253,0.787-0.863,1.316-1.516c0.169-0.208,1.503-1.61,1.645-1.187
	c0.331-0.01,1.467-0.277,1.578-0.725c0.176-0.025,0.267-0.066,0.461-0.066c0.405,1.626,3.069,3.101,4.539,1.78
	c1.15-1.034,2.58-2.192,3.618-3.362c1.231-1.388,0.855-1.244,0.855-3.032c0-2.258,0.015-4.014,2.631-2.703
	c0.99,0.497,1.223-0.848,1.974-0.989c0.845-0.158,1.398,0.329,2.236,0.329c0.363-0.637,0.197-0.882,0.197-1.516
	c1.703-0.568,4.006-2.579,3.685-4.681c-0.172-1.118-0.724-2.211-0.724-3.362c0-1.005,0.46-1.943,0.46-2.966l0.197-1.516l0,0
	l2.5,0.198c0.81,0,1.206-1.192,1.711-1.318c0.018-0.124,0.724-1.236,0.789-1.252c0.046-0.185,0.151-0.08,0.197-0.264
	c0.595,0,0.668-0.226,1.315,0.131c0.379,0.209,0.982,0.957,1.382,0.989c1.343,0.11,2.14-1.076,3.486-1.187
	c2.375-0.196,4.21,1.315,4.21-2.308c0-0.947,0.142-1.462,0.329-2.373l2.303,0.659c0.586,0.353,0.607,1.466,1.118,1.978
	c0.668,0.668,1.249,0.653,2.171,0.593c1.866-0.12,3.353-0.679,5.263-0.264c1.147,0.25,2.08-0.787,2.895-1.384
	c0.744-0.546,2.591-2.648,2.828-3.362c0.35,1.049,1.665,2.058,1.975,3.296c0.5,2.005,1.759,2.585,3.486,3.692
	c1.031,0.661,2.039-0.198,2.763-0.923c1.219-0.95,1.69-2.487,2.039-3.889c0.495-1.992,1.361-1.175,2.895-0.792
	c2.921,0.731,5.939,2.207,8.815,3.165c1.498,0.499,2.112,3.126,2.434,4.417c1.717,0,3.151-2.306,4.474-2.637
	c0.024-0.17-0.035-0.156,0.132-0.198c0.067-0.273,0.588-0.273,0.657-0.066c0.12,0.03,0.297,0.1,0.329,0.198
	c1.575,0.394,3.345,2.408,5.065,1.648l-0.753,4.23l0,0c-0.661-0.54-1.307-0.81-1.813-0.407c-2.336,1.861-2.35,4.496-5.46,5.273
	c0,1.581,2.368,2.602,2.368,4.351c0,2.163-3.601,3.306-4.539,5.01c0,1.256,1.21,2.014,0.921,3.691
	c-0.227,1.311-2.188,2.316-1.25,3.428c1.729,2.049,5.016,2.689,7.434,1.187c1.022-0.636,2.572-2.043,3.749-2.043l0.066,0.132
	c2.258,0.322,0.274,4.314-0.593,5.142c-1.87,1.787-2.479,0.955-2.17,3.428c1.811,1.293,2.418,1.946,4.67,2.637
	c1.763,0.541,3.616,0.92,5,2.307c2.132,2.137,8.466,0.683,9.21,2.176c1.238,2.485-1.404,4.706-2.04,6.658
	c-0.48,1.476-0.438,2.472-0.724,3.955c-0.925,4.803-5.9,0.461-8.485,0.461c-0.125,0.125-0.166,0.128-0.329,0.198
	c-0.055,0.192-0.028,0.127-0.197,0.264c0,3.058-2.344,3.019-4.736,3.56c-5.037,2.525-5.401-0.784-8.486-2.637
	c-2.242,1.349-4.878,3.861-7.368,4.482c-1.058,2.472-1.862,3.521-2.965,5.022c-0.501,0.683-0.647,1.68-1.64,2.559
	c-3.83,3.392-6.651,0.951-9.999,2.769c-2.25,1.221-4.467,3.307-6.645,4.812c-3.042,2.104-5.964,0.544-8.618,4.087
	c-1.923,2.569-2.291,1.964-5.262,1.847c-2.308-0.092-4.056,0.288-5.986,1.45c-0.921-0.554-2.148-0.819-3.224-1.055
	c-2.85-1.035-1.845-3.346-5.329-1.253c-0.866,0.521-5.723,2.997-5.723,3.494c0,2.193-0.206,2.561-1.908,4.021
	c-2.152,1.849-4.377,1.159-6.842,1.846c-1.032,0.288-3.802,5.628-3.288,6.658c0.653,1.31,3.489,2.271,3.025,4.087
	c-0.227,0.888-3.38,3.955-4.342,3.955c-1.794,0-2.604-2.122-4.539-1.846c-0.672,1.347-0.119,5.525-1.447,5.867
	c-2.467,0.636-5.717,0.141-7.828-1.055c-5.192-2.939-6.853-4.145-12.038-0.066c-3.228,2.538-4.004-4.291-6.97-0.068
	c-3.623,6.342-4.647,3.426-9.189,0.395c-0.685-0.457-1.396-0.715-2.109-0.812l0,0l-6.731-4.524
	c-0.465-2.642-1.882-5.059-2.697-7.515c-0.69-2.078-5.73,0.194-8.42-1.978c-1.7-1.372-1.23-2.974-0.263-4.549
	c1.139-1.854-0.197-2.695-0.197-4.482l0.066-0.065h0.131c0.27-0.813,3.618-0.389,3.618-1.385c-3.354,0-4.196-1.73-5.854-4.219
	c-1.667-2.5-2.34-1.318-5-1.318c-0.988-1.979-2.421-3.195-3.289-5.34c-1.443-3.567,2.171-0.586,2.171-2.966
	c0-1.752-2.966-4.441-3.355-6.328c-0.55-2.666-0.725-4.76-3.223-6.263c-3.621-0.932-6.145-1.627-4.802-5.933
	c0.548-1.761-3.161-5.238-2.04-5.802c0-1.894,1.205-2.131-1.184-2.702c-4.651-1.112-0.99-2.758,0.46-5.669
	c0.55-1.104,1.017-2.07,2.302-2.176c1.205-0.099,1.598-1.01,2.303-1.186c0.299-1.5,1.644-1.975,1.644-4.021
	c-0.455,0-1.713,0.78-2.368,0.923c-3.531,0.771-7.812-0.165-6.579-4.614c0.639-2.306,4.342-6.991,4.342-8.833
	c-1.192,0-1.538-0.868-2.171-1.714l-4.473-1.846l0,0c0.492-0.623,2.175-2.015,2.237-2.834c0.109-1.443,0.22-2.034,0.789-3.362
	c1.67-0.417,2.094,0.132,3.618,0.132c1.852,0,3.456-2.077,5.065-2.307c1.226-1.72,6.509,1.45,8.749,1.45
	c3.254,0,6.085-1.252,9.078-1.252L348.101,206.109L348.101,206.109z"/>
            <text transform="matrix(1 0 0 1 343 245)">
                <tspan fill="#FFFFFF" font-size="12px" font-family="Open Sans,sans-serif" font-weight="bold">Sächsische</tspan>
                <tspan x="0" y="16" fill="#FFFFFF" font-size="12px" font-family="Open Sans,sans-serif" font-weight="bold">Schweiz-</tspan>
				<tspan x="0" y="32" fill="#FFFFFF" font-size="12px" font-family="Open Sans,sans-serif" font-weight="bold">Osterzgebirge</tspan>
            </text>
        </a>
		<a class="region" id="e"
		   xlink:href="https://www.lakossachsen.de/netzwerkkarte/mittelsachsen" target="_parent">
			<path fill="#669C64" stroke="#1D1D1B" stroke-width="0.2835" d="
	M243.849,286.795c0.312-1.075,0.053-1.255-0.131-2.176c-4.272-1.424,2.575-7.64-0.855-9.163c-1.569-0.697-3.878-2.46-5.46-2.57
	l-5.657-0.396c-0.056-0.113-0.059-0.104-0.198-0.132c-0.756-2.271,2.545-3.846,1.842-6.658c-1.9-0.475-1.165-4.475-1.513-5.867
	c-0.335-0.111-0.226-0.461-0.79-0.461c-0.002-0.004-2.968-0.857-3.289-0.857c-0.162,0.487-2.291,1.87-2.829,1.978
	c-1.499,0.728-4.361,0.281-5.92-0.132c-1.962-0.519-3.757-0.527-5.855-0.527c0-1.209,0.526-2.481,0.526-3.823l-0.066-0.065
	c-0.677,0-1.291,0.353-2.039,0.396c-3.118,0.179-7.828,0.46-10.131,2.769c-1.118,1.12-1.449,1.593-1.645,3.099
	c-0.206,1.585-1.744,2.216-2.829,3.032l-1.184,2.175l0,0l-2.763-0.923c-0.065-0.088-0.176-0.201-0.197-0.264
	c-0.151-0.038-0.152-0.132-0.329-0.132c-0.133-0.534-2.083-0.164-2.565-0.33c-0.731-0.252-1.401-1.506-1.645-2.241
	c-0.607-1.826-2.607-3.535-4.079-5.01c-0.866-0.866-0.385-3.227-1.842-3.361c-0.232-0.021-1.405-0.63-1.513-0.198
	c-1.104,0.276-1.649,1.233-3.158,0.857c-0.983-0.245-2.063-1.068-2.895-1.187c-1.114,1.67-4.675-3.133-5.031-3.955l-3.455-1.318l0,0
	c-2.192-3.569-5.73-3.33-6.184-8.636c0-3.116,0.224-6.121-0.769-8.851l0,0l6.953-1.103c2.047-0.661,2.973-1.148,5.131-0.593
	c3.103,0.798,3.146-5.765,5.986-5.999c0.736-0.061,2.646,1.308,3.487,1.582c1.599,0.522,1.962,1.079,3.618,0.527
	c0-0.454-0.288-0.498-0.329-0.791c-1.34-0.334-2.974-5.048-3.355-6.196c-0.866,0-2.046-0.069-2.565-0.791
	c-0.314-0.435-0.733-1.976,0.065-2.175c0.088-0.353,1.774-1.701,2.105-2.109c0.271-0.334,1.183-2.921,1.25-3.362
	c0.096-0.623,0.784-0.971,0.263-1.648c-0.233-0.303-1.388-0.749-1.447-0.988c-0.127-0.032-0.166-0.07-0.197-0.198
	c-0.215-0.054-0.079-0.268-0.263-0.329c0-0.923-0.152-1.716,0.132-2.637c0.21-0.683,0.897-1.479,0.987-2.11
	c0.151-0.075,0.46-0.464,0.46-0.659c0.109-0.037,0.046-0.094,0.197-0.132c0.099-0.398,0.565-0.723,0.658-1.187
	c0.127-0.063,0.108-0.159,0.263-0.198c0.082-0.41,0.471-0.611,0.526-1.055v-3.955l0.329-1.517l0.855-1.978
	c1.648-0.412,1.449,0.018,3.092,0.989c1.669,0.986,2.391-0.812,3.815,0.396c0.725,0.615,1.547,1.079,2.565,0.725
	c1.145-0.397,2.374-2.524,2.237-0.264c-0.04,0.653-0.467,1.755-0.329,2.307c2.089,0.522,3.447,0.132,5.658,0.132
	c2.171,0,3.233-1.56,5-0.593c0.953,0.522,2.914,0.473,4.013,0.396c2.464-0.174,2.916-0.204,2.434-3.098
	c0.195-1.569,0.921-2.176,0.526-3.757c-0.369-0.092-0.779-0.822-1.184-0.923c-0.491-1.968,3.006-4.057,0.065-5.669
	c-0.856-0.47-6.285-3.593-6.315-3.956c-0.147-1.786,0.498-3.202,1.776-4.351c1.094-0.984,1.478-2.081,2.303-3.296
	c1.311-1.932,3.75-7.156,3.75-9.36c0.455-0.305,0.695-1.133,1.381-1.517c0.895-0.5,1.702-0.437,2.632-0.659
	c1.818-0.435,2.287,0.67,3.42-1.45l0,0c1.961-0.761,4.172-2.07,6.118-2.637c1.063-0.31,4.275,0.607,5.525,0.857
	c0.15,0.603,0.911,1.409,1.053,1.978c0.295,0.074,0.551,0.418,0.855,0.461c0.72,1.8,4.014,4.482,5.921,4.482
	c4.289,0,2.308-1.357,3.355-4.087c0.682-1.778,2.062,0.345,3.421,0.066c0.387-0.079,2.559-1.264,2.697-1.187
	c0.546,0.308,0.242,1.516,1.381,1.516c0.501,0,3.804-0.108,4.079-0.264c0.141-0.08-1.048-3.296,0-3.296
	c0.338,1.014,6.934,2.208,7.499,0.066c0.769-2.909,5.184,0.454,5.855-2.241c0.134,0,0.292,0.046,0.329-0.066h2.04l2.368-1.253l0,0
	c0.413,1.071,0.31,2.229,0.658,3.296c0.374,1.148,1.25,1.582,1.25,2.834c-0.779,0.26-2.28,1.692-2.895,1.846
	c0,0.347,0.128,0.32,0.197,0.527h0.197c0.062,0.246,1.951,1.88,2.171,1.912c0.134,0.94,0.65,2.291,0.855,3.362
	c0.264,1.377-0.066,2.851-0.066,4.219c1.158,0.386,3.755,2.281,3.947,3.625c1.066,0.267,1.638,1.252,3.092,1.252
	c0.248,0.996,1.54,3.011,1.184,4.153c-0.518,1.662-0.263,3.157-0.263,5.01c0.188,2.197,0.351,5.368-1.908,6.064
	c-3.254,1.004,0.918,1.812,1.513,2.637c1.063,1.476,0.46,5.047,0.46,6.921c0,2.21,2.058,5.272-1.908,6.065
	c-0.181,1.271,2.515,3.416,3.026,5.076c0.726,2.358-3.355,4.132-3.355,6.395c0,2.078-1.946,3.213-1.382,5.471l0.066,0.066
	c1.292,0,5.621-4.926,7.039-5.801c2.341-1.444,4.679-0.829,6.973-1.978c2.634-1.319,7.096-5.669,9.736-5.669
	c3.096,0,5.867,3.102,8.486,4.417l3.618,0.725l0,0l4.473,1.846c0.633,0.846,0.979,1.714,2.171,1.714
	c0,1.842-3.703,6.527-4.342,8.833c-1.233,4.45,3.048,5.385,6.579,4.614c0.655-0.143,1.913-0.923,2.368-0.923
	c0,2.047-1.345,2.521-1.644,4.021c-0.705,0.176-1.098,1.087-2.303,1.186c-1.285,0.106-1.752,1.071-2.302,2.176
	c-1.451,2.911-5.112,4.557-0.46,5.669c2.389,0.571,1.184,0.809,1.184,2.702c-1.121,0.563,2.588,4.041,2.04,5.802
	c-1.343,4.306,1.181,5.001,4.802,5.933c2.498,1.503,2.673,3.597,3.223,6.263c0.389,1.887,3.355,4.576,3.355,6.328
	c0,2.38-3.614-0.602-2.171,2.966c0.868,2.145,2.301,3.36,3.289,5.34c2.66,0,3.333-1.182,5,1.318c1.658,2.488,2.5,4.219,5.854,4.219
	c0,0.996-3.348,0.572-3.618,1.385h-0.131l-0.066,0.065c0,1.787,1.336,2.628,0.197,4.482c-0.967,1.575-1.437,3.177,0.263,4.549
	c2.69,2.172,7.73-0.101,8.42,1.978c0.814,2.456,2.232,4.873,2.697,7.515l6.731,4.524l0,0c-2.853-0.385-5.723,1.819-7.014,4.166
	c-1.211,2.2-6.546,1.54-8.533,0.986c-5.324-1.484-6.011,1.77-10.567,3.289c0,2.978,3.977,6.085,2.888,8.747
	c-1.799,4.4-6.518,2.694-3.544,8.353c1.167,2.22-2.28,3.631-3.807,4.735l0,0l-1.349-1.643c-0.087-0.084-0.579-0.656-0.855-0.726
	c0.054-0.161,2.812-3.235,0.395-2.308c-2.206,0.848-4.319-1.341-5.197-2.834c-0.698-1.187-4.458-1.052-5.789-1.385
	c-0.244-0.976-0.198-2.772-0.198-3.823c-0.544-0.136-1.417-0.537-2.171-0.725l-0.855-3.626c-1.265,0-2.01,2.655-3.026-0.659
	c-0.673-2.193-2.359-5.889-4.671-6.657c-1.342-0.447-0.921-6.164-0.79-6.197c0.562-2.246,0.758,0.408,0-2.637
	c-0.343-1.378-1.207-2.837-1.579-3.955c-2.659,0-5.342,1.151-7.565,2.637c-0.955,0.639-1.381,2.093-2.631,1.187
	c-2.758-1.998-1.278-0.506-4.144-0.065c-2.145,0.329-6.421-0.557-3.487-3.494c1.978-1.98-0.259-4.545-1.645-5.933
	c-0.878-0.073-2.108-0.103-2.565-0.791c-1.737,0-1.607,1.622-3.486-0.264c-1.698-1.703-4.354-0.477-6.118-2.109
	c-0.713-0.66-6.23-1.436-6.381-0.527c-0.352,0.101-0.854,1.187-1.315,1.187c-0.031,0.094-0.702,0.143-0.855,0.197
	c-0.339,0.122-0.771,0.523-1.053,0.594c-0.065,0.264-0.813,0.96-0.987,0.989c-0.618,2.165-3.979-0.594-5.591-0.594
	c-0.336-1.348-0.165-3.925-1.448-4.813c-1.521-1.053-2.313,1.179-3.157,1.846c-1.24,0.98-3.798,0.611-4.934-0.527
	c-1.16-1.162-1.038-3.621-2.895-4.416L243.849,286.795L243.849,286.795z"/>
			<text transform="matrix(1 0 0 1 200 240)">
				<tspan fill="#FFFFFF" font-size="12px" font-family="Open Sans,sans-serif" font-weight="bold">Mittelsachsen</tspan>
			</text>
		</a>
		<a class="region" id="f"
		   xlink:href="https://www.lakossachsen.de/netzwerkkarte/leipzig-land" target="_parent">
			<path fill="#9DC200" stroke="#1D1D1B" stroke-width="0.2835" d="
	M76.591,120.726l4.903,0.149l6.052-3.955l0,0l1.645,1.516c0.143,1.144,0.823,1.757,1.71,2.373c0.827,0.574-2.098,1.353-2.434,1.78
	c-0.589,0.748-0.808,1.617-1.579,2.175c-1.191,0.861-0.002,1.59,0.724,2.439c1.125,1.316,0.895,3.513,1.974,4.483
	c0.562,0.505,1.43-0.119,1.71,0.725c0.412,1.242,0.209,1.857,1.25,2.9c0.383,0.383,2.485,2.196,2.566,2.439
	c-0.757-0.252-5.328-1.647-5.855-1.121c-0.913,0.913,0.132,5.607,0.132,7.185c0,2.335-0.254,3.906-0.658,6.13
	c-0.408,2.25,5.758-0.925,6.645-1.384l5.723,0.264c1.328,0.061,0.647-3.616,1.645-4.615c0.84-0.842,0.612-1.813,1.052-2.9
	c0.783-1.937,3.349,0.817,4.079-0.33c1.568-2.464,1.25-5.282,1.25-8.042c0.513,0.128,2.554,2.323,2.697,2.901
	c0.894,0,1.12-0.513,1.447-1.252c0.33-0.745,0.855,0.961,1.053,1.384c0.904,1.933,1.696,2.175,3.684,2.175
	c2.642,0,6.479-2.648,9.276-1.252c1.621,0.809,0.577,5.931,1.315,6.262c1.027,0.462,6.521,1.596,7.368,1.384
	c0-1.175-0.709-1.328-0.526-2.834c0.139-1.143,0.95-2.36,1.381-3.428c0.427-1.057,2.268-6.827,2.829-7.185
	c1.329-0.85,3.774-0.13,5.263-0.66v-2.571c0-1.311,0.638-2.294,0.921-3.428c0.377-0.094,0.263-0.594,0.197-0.857
	c-0.285-0.071-2.18-0.894-2.236-1.121c-0.327,0-0.168-0.141-0.395-0.198c0-1.091,0.601-1.413,1.382-1.978
	c0.911-0.659-0.19-1.449-0.987-1.648c-0.684-2.741-4.58-0.32-4.934-2.637c-0.134-0.876-0.319-1.802-0.426-2.736l0,0
	c1.196-0.689,2.608-1.938,3.781-2.801c0.417-0.308,1.236-1.935,1.776-1.055c2.019,3.286,7.014-2.295,9.341-1.713
	c0.03,0.121,0.011,0.102,0.131,0.131c0.24,1.2,1.291,1.569,1.908,0.33c0.396-0.793,0.017-1.714,1.25-1.714
	c1.914,0,3.487,0.739,3.487-1.912c0-1.325,1.645-1.917,1.645-3.23c0-2.944,0.552-1.548,2.565-2.109
	c0.767-0.214,1.568,0.564,2.171,0.132c0.796-0.572,1.024-1.499,0.066-1.978c-0.364-1.456,1.447-2.476,1.447-3.889
	c-0.451-0.15-1.066-0.379-1.645-0.462c-0.267-1.067-0.066-1.694-0.066-2.834c0.768-1.134,1.465-2.326,2.434-3.296
	c0.613-0.614,1.268-0.641,1.974-0.198c0.951,0.597,3.329-0.595,4.868,0c1.483,0.573,2.994,0.926,4.013-0.593
	c0.477-0.711,0.96-1.57,1.908-1.648c1.055-0.087,2.48,0.32,3.618,0.527c1.586,0.29,2.989-0.746,4.408-0.923
	c0.205-0.239,0.809-0.978,1.118-1.055c1.049-0.797,2.806-2.9,4.079-2.9c0.575,1.007,1.526,1.328,2.565,1.648
	c2.563,0.79,1.587,3.296,4.737,3.955c1.681,0.352,3.763,1.252,5.394,1.252c1.355,0,2.766-0.915,3.881,0.33
	c0.491,0.548,0.529,1.447,1.118,1.978c1.789,1.607,5.59,1.306,6.25,4.614c0.537,2.386,2.54,2.121,4.604,2.637
	c0.164,0.824-0.379,1.315-1.184,1.516c-0.28,1.12,2.417,4.291-0.131,5.142c-1.691,0.565-2.872-1.516-4.474-1.516
	c-1.951,0-0.194,2.504,0.132,3.889c0.132,0.563,0.129,3.658,0.46,3.889c0.8,0.558,1.88-0.386,2.434,0.725
	c0.739,1.483,3.313,1.69,1.645,3.362c-1.046,1.048-0.219,3.365-1.974,2.438c-2.497-1.318-2.658,0.753-4.21,2.308
	c-1.117,1.118,0,5.478,0,7.119c-0.121,0.03-0.102,0.011-0.132,0.132c-3.854,0.963-4.713,1.899-5.855,5.405
	c-1.042,3.199,5,3.223,5,7.251c0.508,2.549,2.329,0.994,3.092,2.703c0.54,1.209,2.014,1.165,3.157,1.45
	c0.127,0.509,0.133,1.456,0,1.978c-0.308,1.205-1.071,1.706-0.657,3.032c0.625,2.005-2.384,3.453-1.776,4.812
	c0.721,1.615-1.775,2.184-1.25,4.285c0.11,0.027,1.228,0.475,1.316,0.527l2.5,1.384l0,0c-1.133,2.121-1.602,1.016-3.42,1.45
	c-0.93,0.222-1.737,0.16-2.632,0.659c-0.686,0.384-0.927,1.212-1.381,1.517c0,2.204-2.438,7.429-3.75,9.36
	c-0.825,1.215-1.208,2.312-2.303,3.296c-1.278,1.148-1.923,2.565-1.776,4.351c0.03,0.363,5.458,3.486,6.315,3.956
	c2.941,1.612-0.557,3.701-0.065,5.669c0.405,0.101,0.815,0.831,1.184,0.923c0.395,1.581-0.331,2.188-0.526,3.757
	c0.482,2.895,0.03,2.924-2.434,3.098c-1.099,0.078-3.06,0.126-4.013-0.396c-1.767-0.967-2.829,0.593-5,0.593
	c-2.21,0-3.569,0.39-5.658-0.132c-0.138-0.552,0.29-1.654,0.329-2.307c0.137-2.261-1.092-0.134-2.237,0.264
	c-1.019,0.354-1.84-0.11-2.565-0.725c-1.425-1.208-2.146,0.59-3.815-0.396c-1.643-0.971-1.444-1.4-3.092-0.989l-0.855,1.978
	l-0.329,1.517v3.955c-0.056,0.444-0.444,0.645-0.526,1.055c-0.155,0.039-0.136,0.135-0.263,0.198
	c-0.093,0.464-0.559,0.789-0.658,1.187c-0.151,0.038-0.088,0.095-0.197,0.132c0,0.194-0.31,0.583-0.46,0.659
	c-0.09,0.63-0.777,1.427-0.987,2.11c-0.284,0.921-0.132,1.713-0.132,2.637c0.185,0.061,0.048,0.275,0.263,0.329
	c0.032,0.128,0.07,0.167,0.197,0.198c0.06,0.239,1.214,0.685,1.447,0.988c0.521,0.678-0.167,1.026-0.263,1.648
	c-0.067,0.44-0.979,3.028-1.25,3.362c-0.331,0.409-2.017,1.757-2.105,2.109c-0.799,0.2-0.379,1.74-0.065,2.175
	c0.52,0.722,1.699,0.791,2.565,0.791c0.381,1.148,2.015,5.862,3.355,6.196c0.042,0.293,0.329,0.337,0.329,0.791
	c-1.656,0.552-2.019-0.005-3.618-0.527c-0.84-0.274-2.75-1.643-3.487-1.582c-2.84,0.234-2.884,6.797-5.986,5.999
	c-2.158-0.556-3.084-0.068-5.131,0.593l-6.953,1.103l0,0c-0.152-0.418-0.333-0.83-0.547-1.235c-2.135-4.032-2.705-4.317-5.854-1.384
	c-2.153,2.004-1.778,1.349-3.75-0.791c-2.639-2.862-3.615-1.074-6.71-1.516c-0.573-2.293,1.972-1.648,1.842-3.362
	c-0.108-1.421-0.249-3.37-0.592-4.747l-0.066-0.065c-2.226-0.444-3.602,0.517-5.263,1.846c-1.148-0.492-1.447-12.788-1.447-14.832
	l-0.066-0.066c-6.104,0-7.446,1.001-8.815-5.867l-0.065-0.066c-1.505,0-2.417,2.637-5.197,2.637c-1.98,0-3.895,0.85-5.723-0.065
	c-0.889-0.445-1.229-2.11-2.171-2.11c-0.146,0.588-1.044,1.185-1.579,1.319c-1.396,0-2.471,0.621-3.75-0.264
	c-0.708-0.49-1.422-1.685-1.842-2.438c-1.07-1.926-1.356-4.214-3.092-5.604c-2.022,0-2.774,3.431-5.065,3.889
	c-0.789,0.158-1.493-0.36-2.303-0.461l0,0l-3.223-0.792c-0.432-0.062-1.476-0.217-1.842-0.461c-0.712,0-1.688-0.451-2.369-0.593
	c-0.721-0.15-1.844-0.065-2.565,0.066c-1.878,0.341-3.235-0.967-4.145-2.439c-0.73-1.183-0.554-1.95-0.395-3.23
	c0.407-0.466,0.988-1.122,1.316-1.582c1.261-0.473,1.537-1.536,1.973-2.703c-0.766-1.539-5.477-2.007-7.17-2.703
	c-2.09-0.859-0.921-2.941-0.921-4.812c0-4.336,6.733-8.57-1.381-8.57c-5.36,0-0.554-3.252-0.263-6.13
	c0.166-1.637,2.036-3.15,1.645-4.68c-0.421-1.649-1.331-3.82-1.513-5.405c-0.202-1.755,0-4.114,0-5.867
	c-3.657-0.914-6.178-2.713-3.815-6.526c0-1.66-0.265-3.166-1.119-4.549c-0.624-1.011-1.776-1.14-1.776-2.438
	c0-2.692-2.072-5.737,0-7.119c1.071-0.715,3.773-2.351,4.868-2.769C76.219,122.782,76.607,121.835,76.591,120.726L76.591,120.726z"
					/>
			<text transform="matrix(1 0 0 1 85 175)">
				<tspan fill="#FFFFFF" font-size="12px" font-family="Open Sans,sans-serif" font-weight="bold">Leipzig Landkreis</tspan>
			</text>
		</a>
		<a class="region" id="g"
		   xlink:href="https://www.lakossachsen.de/netzwerkkarte/leipzig" target="_parent">
			<path fill="#BC8D11" stroke="#1D1D1B" stroke-width="0.2835" d="
	M138.432,113.261c0.107,0.934,0.292,1.86,0.426,2.736c0.354,2.316,4.25-0.104,4.934,2.637c0.796,0.199,1.897,0.989,0.987,1.648
	c-0.781,0.565-1.382,0.887-1.382,1.978c0.227,0.057,0.068,0.198,0.395,0.198c0.056,0.227,1.951,1.049,2.236,1.121
	c0.065,0.263,0.18,0.763-0.197,0.857c-0.283,1.134-0.921,2.117-0.921,3.428v2.571c-1.489,0.53-3.934-0.19-5.263,0.66
	c-0.561,0.358-2.401,6.128-2.829,7.185c-0.432,1.067-1.242,2.285-1.381,3.428c-0.183,1.506,0.526,1.66,0.526,2.834
	c-0.846,0.211-6.34-0.922-7.368-1.384c-0.738-0.331,0.305-5.453-1.315-6.262c-2.796-1.396-6.634,1.252-9.276,1.252
	c-1.987,0-2.779-0.242-3.684-2.175c-0.198-0.423-0.723-2.129-1.053-1.384c-0.327,0.739-0.553,1.252-1.447,1.252
	c-0.144-0.578-2.185-2.772-2.697-2.901c0,2.761,0.319,5.579-1.25,8.042c-0.73,1.147-3.296-1.607-4.079,0.33
	c-0.44,1.087-0.212,2.059-1.052,2.9c-0.997,0.999-0.316,4.676-1.645,4.615l-5.723-0.264c-0.886,0.459-7.053,3.634-6.645,1.384
	c0.404-2.224,0.658-3.795,0.658-6.13c0-1.578-1.044-6.272-0.132-7.185c0.527-0.527,5.098,0.869,5.855,1.121
	c-0.081-0.243-2.183-2.056-2.566-2.439c-1.04-1.043-0.838-1.658-1.25-2.9c-0.28-0.844-1.149-0.22-1.71-0.725
	c-1.079-0.97-0.849-3.167-1.974-4.483c-0.726-0.849-1.915-1.578-0.724-2.439c0.771-0.558,0.99-1.428,1.579-2.175
	c0.335-0.427,3.26-1.206,2.434-1.78c-0.887-0.616-1.567-1.229-1.71-2.373l-1.645-1.516l0,0c1.009-3.595-1.005-5.781,1.974-8.768
	c1.505-1.509,1.381-0.675,1.381-2.703c0-1.378,1.579-1.851,1.579-3.494c-0.798-0.266-2.171-2.282-2.171-3.23l0.066-0.066
	c0.565-0.142,2.563-0.185,2.697-0.725c0.087-0.029,0.104-0.088,0.131-0.198c-1.49-1.117-1.803-0.947-1.315-2.9
	c0.405,0,1.698,0.865,2.5,0.989c4.968,0.768,11.407-2.501,15.656,0.198c1.378,0.875,1.488,2.471,3.224,2.835
	c2.765,0.581,6.973-1.907,6.973-4.812c0-2.617,1.24-2.242,3.092-1.78c1.243,0.31,2.571-0.463,2.829-1.714
	c0.132-0.64,1.584-0.613,2.171-0.923c0.82-0.433,2.027-3.31,3.092-2.241c0.775,0.778,1.072,3.098,2.566,3.098
	c0.839-0.052,1.848,0,2.697,0c0,0.589-0.567,5.24-1.579,4.681c-0.459-0.254-2.235-1.733-2.631-1.252
	c-0.551,0.667-2.007,0.25-2.302,1.318c-0.32,1.153,1.29,2.58,1.579,3.625c0.167,0.601,0.215,3.967-0.263,4.087
	c-0.185,0.925,0.029,1.198,0.263,2.043c0.321,1.161,1.305,0.694,1.447,1.121h0.131l0.066,0.066c0,1.165-1.488,3.598-0.658,4.68
	c0.496,0.646,1.268,0.938,1.645,1.648c0.94,1.774,1.504-0.323,2.697,0.396L138.432,113.261L138.432,113.261z"/>
			<text transform="matrix(1 0 0 1 93 126)">
				<tspan fill="#FFFFFF" font-size="12px" font-family="Open Sans,sans-serif" font-weight="bold">Leipzig</tspan>
			</text>
		</a>
		<a class="region" id="a"
		   xlink:href="https://www.lakossachsen.de/netzwerkkarte/chemnitz" target="_parent">
			<path class="p1" fill="#856675" stroke="#1D1D1B" stroke-width="0.2835" d="
	M243.849,286.795c0.312-1.075,0.053-1.255-0.131-2.176c-4.272-1.424,2.575-7.64-0.855-9.163c-1.569-0.697-3.878-2.46-5.46-2.57
	l-5.657-0.396c-0.056-0.113-0.059-0.104-0.198-0.132c-0.756-2.271,2.545-3.846,1.842-6.658c-1.9-0.475-1.165-4.475-1.513-5.867
	c-0.335-0.111-0.226-0.461-0.79-0.461c-0.002-0.004-2.968-0.857-3.289-0.857c-0.162,0.487-2.291,1.87-2.829,1.978
	c-1.499,0.728-4.361,0.281-5.92-0.132c-1.962-0.519-3.757-0.527-5.855-0.527c0-1.209,0.526-2.481,0.526-3.823l-0.066-0.065
	c-0.677,0-1.291,0.353-2.039,0.396c-3.118,0.179-7.828,0.46-10.131,2.769c-1.118,1.12-1.449,1.593-1.645,3.099
	c-0.206,1.585-1.744,2.216-2.829,3.032l-1.184,2.175l0,0c0,1.901,0.026,4.787-1.382,6.196c-0.786,0.788-1.91,1.288-2.5,2.176
	c-1.179,1.773-1.388,3.278-3.487,4.219c-0.796,0.356-1.509,0.64-2.368,0.33c-0.695-0.252-1.593-1.319-2.368-1.319
	c0,0.134,0.036,0.099-0.065,0.132c0,0.699-0.198,1.362-0.198,2.11c4.014,1.001,5.763,3.501,6.513,7.251l0.132,3.493l0,0
	c3.341,1.514,3.892,1.726,7.039-0.132c1.999-1.18,5.585-4.387,7.565-2.637c1.459,1.29,3.338,0.815,4.868,1.582
	c0.708,0.354-0.855,3.02-0.855,3.89l0.066,0.065c1.5,0,2.161-1.714,3.486-1.714c0.973,2.926,1.525,4.701-2.171,5.934v0.461
	c3.398,1.133,1.999,0.438,3.881,3.494c1.372,2.227,6.642,4.994,8.026,1.252c0.524-1.418,1.234-3.456,2.829-2.043
	c1.589,1.406,1.962,0.255,3.29,0.065l2.96-3.032c0.906-0.929,0.987-2.832,0.987-4.087c1.896,0,3.578,2.769,5.197,2.769
	c0.347-1.737,1.485-2.576,2.171-4.087L243.849,286.795L243.849,286.795z"/>
			<text transform="matrix(1 0 0 1 195.0625 284.6899)">
				<tspan fill="#FFFFFF" font-size="12px" font-family="Open Sans,sans-serif" font-weight="bold">Chemnitz</tspan>
			</text>
		</a>
        <a class="region" id="k"
           xlink:href="https://www.lakossachsen.de/netzwerkkarte/bautzen" target="_parent">
            <path fill="#856675" stroke="#1D1D1B" stroke-width="0.2835" d="
	M396.271,109.142l3.092,3.757c0.665,2.297,2.171,5.463,2.171,7.778c-0.728,0-3.628-0.54-4.276-0.923
	c-1.574-0.929-0.605,0.58-0.854,1.582c-0.475,1.909-1.445,4.345-2.5,5.933c-0.399,0.601-2.96,3.798-2.96,4.219
	c0.615,0.154,2.171,5.05,2.171,5.867c0,1.096-1.803,2.235-0.79,3.691c0.789,1.136,5.629,1.688,2.632,2.769
	c-1.795,0.647-1.097,3.54-1.447,4.944c-1.789,0-3.026-0.698-3.026,1.583c0.656,0.219,2.145,1.925,2.697,2.109
	c0,0.546-0.979,2.622-1.25,3.164c-0.55,1.103-3.063,0.083-3.749-0.33c0.403,0.294,0.093,0.476-0.198,0.791
	c-0.164,0.178-0.343,0.531-0.592,0.593c-0.023,0.094-0.444,0.42-0.526,0.461c-0.053,0.211-1.298,0.807-1.578,1.055
	c-1.128,0.997,0.063,1.713,0.854,2.241c1.19,0.795,0.27,1.475,0.526,2.505c0.554,0.138,1.325,0.597,1.908,0.856
	c0.542,0.241,0.789,1.009,0.789,1.582c-0.274,0.091-0.626,0.595-1.118,0.725c-1.683,0.446-2.324,1.129-3.224,2.571l-0.986,2.571l0,0
	c0.312,0.151,0.802,0.184,0.986,0.461c0.168,0,0.488,0.242,0.526,0.396c0.496,0.124,1.61,1.863,2.104,2.307
	c1.998,1.795,2.353-2.032,4.671,1.187c0.547,0.758,1.563,0.973,2.237,1.648c0.559,0.559,1.315,2.077,1.447,2.109
	c0,0.144-0.016,0.161,0.131,0.198c0.624,2.505,8.222-5.871,10.46-1.384c1.302,0.26,2.156,3.377,0.592,4.021
	c-1.904,0.784-4.406,1.056-2.697,2.769c0.928,0.93,2.424,2.437,2.829,3.757c0.531,1.731,1.369,1.636,2.434,2.703
	c1.015,1.016,2.478,4.924,1.711,6.328c-0.968,1.774-2.562,3.559-3.75,5.208c-0.846,1.174,2.338,0.581,3.224,0.791
	c2.389,0.565,2.283,3.341,5.723,3.099c3.036-0.215,0.722-4.417,2.632-4.417l2.303,2.505l1.381,1.78l0,0l2.5,0.198
	c0.81,0,1.206-1.192,1.711-1.318c0.018-0.124,0.724-1.236,0.789-1.252c0.046-0.185,0.151-0.08,0.197-0.264
	c0.595,0,0.668-0.226,1.315,0.131c0.379,0.209,0.982,0.957,1.382,0.989c1.343,0.11,2.14-1.076,3.486-1.187
	c2.375-0.196,4.21,1.315,4.21-2.308c0-0.947,0.142-1.462,0.329-2.373l2.303,0.659c0.586,0.353,0.607,1.466,1.118,1.978
	c0.668,0.668,1.249,0.653,2.171,0.593c1.866-0.12,3.353-0.679,5.263-0.264c1.147,0.25,2.08-0.787,2.895-1.384
	c0.744-0.546,2.591-2.648,2.828-3.362c0.35,1.049,1.665,2.058,1.975,3.296c0.5,2.005,1.759,2.585,3.486,3.692
	c1.031,0.661,2.039-0.198,2.763-0.923c1.219-0.95,1.69-2.487,2.039-3.889c0.495-1.992,1.361-1.175,2.895-0.792
	c2.921,0.731,5.939,2.207,8.815,3.165c1.498,0.499,2.112,3.126,2.434,4.417c1.717,0,3.151-2.306,4.474-2.637
	c0.024-0.17-0.035-0.156,0.132-0.198c0.067-0.273,0.588-0.273,0.657-0.066c0.12,0.03,0.297,0.1,0.329,0.198
	c1.575,0.394,3.345,2.408,5.065,1.648l-0.753,4.23l0,0c1.064,0.871,2.17,2.442,2.792,3.021c2.564,2.382,3.05,0.029,5.328-1.318
	c0.542-0.321,2.582,1.784,3.618,2.043c2.773,0.694,1.813,3.71,5.066,5.405c3.195,1.665,3.314,2.59,6.314-0.198
	c1.291-1.199,3.812-3.698,5.592-3.823c1.922-0.136,1.262,3.7,4.868,3.494c2.018-0.115,1.444-5.208,3.092-5.208l0,0
	c0-0.433-0.658-2.108-0.658-2.505c-0.088-0.029-0.104-0.087-0.131-0.198l-0.066-0.066c-0.121-0.03-0.102-0.011-0.132-0.132
	c-0.865-0.216-1.04-4.658-1.513-5.669c-1.883-4.028,2.553-4.034,5.789-4.482c2.247-0.312,3.899-2.419,6.447-1.517
	c0.935,0.332,2.334,0.903,3.092-0.198c0.92-1.339,1.238-2.195,1.315-3.889c0.081-1.776,0.673-1.663,1.645-2.637
	c1.55-1.553-0.917-2.956-1.25-4.219c-0.547-2.074,4.463-1.089,5.395-0.857c2.295,0.572,5.188,0.71,1.776-1.978
	c1.063-0.474,1.911-0.857,3.092-0.857c1.225,0,2.021,0.018,2.828-0.989c1.139-1.417-0.743-4.106,1.382-4.813
	c1.063-0.354,1.957-2.736,2.236-2.769c1.941-0.222,2.52,2.637,4.079,2.637c1.144,0,1.118-1.866,1.118-2.637
	c0-1.088-1.053-2.078-1.053-3.098c0.24-0.08,0.656-0.445,0.986-0.527c0.062-0.433,2.45-4.042,2.632-4.087
	c0.085-0.341,0.233-0.187,0.132-0.593c-0.121-0.03-0.102-0.011-0.132-0.132c-0.844,0-2.26-0.883-2.895-1.45
	c-0.239-0.639-0.848-1.515-1.447-1.714c0-0.244,0.035-0.555,0.263-0.593c0.041-0.287,0.543-0.865,0.79-0.989
	c0-1.04,0.337-3.691-1.053-3.691c-1.812,0-4.231-0.109-5-2.241c-0.213-0.593,0.063-2.546-0.328-2.637
	c-0.227-0.052-1.302-0.306-1.316-0.264h-0.197v0.132c-0.28,0.094-0.76,1.846-1.249,1.846c-0.316-0.951-2.172-1.594-2.172-2.703
	c0-1.114,1.628-2.952,2.105-4.021c1.279-2.866-1.674-4.692-3.815-5.406c0-1.138,0.45-2.914,0.592-4.153
	c0.332-2.887-0.059-1.11-1.578-2.769c-3.091-3.374-1.908-3.495-1.908-7.779c-0.831-0.166-2.57-1.079-3.289-1.318
	c0-0.438,0.292-1.179,0.395-1.582c-0.052-0.157-2.111-0.872-2.434-1.121c-0.491-0.378-0.674,0.843-1.053,0.989
	c-0.663,0.256-3.257-2.834-3.947-3.428c-1.152-0.99-2.299-1.632-2.632-3.296c-0.396-1.987,0.725-3.308,0.725-4.944
	c-0.172,0-3.72,3.817-3.947,4.417c-0.726,1.909-0.085,5.811-3.553,5.142c-1.933-0.373-2.116-0.133-3.947,0.527
	c-1.868,0.673-1.775-3.822-1.775-5.076c0-1.82-0.458-1.619-2.171-1.78l3.157-7.581c0.119-0.479,2.295-3.387,0.987-3.823
	c-0.968-3.878,3.866-6.258,3.354-8.306l-0.065-0.066c-0.084-0.021-0.113-0.045-0.198-0.066l-0.065-0.065v-0.264
	c2.217-0.739,2.379-1.542,2.895-3.56c0.306-1.195,1.762-3.539,1.447-4.482c-1.786,0-3.815,0.338-3.815-1.846
	c0-2.842-0.679-2.166-3.354-2.834c-0.432-1.731-0.396-3.445-0.396-5.339c-0.111-0.028-0.303-0.188-0.328-0.264
	c-1.911-0.477-2.319-5.624-1.711-7.317c0.079-0.218,0.64-1.808,0.329-1.912c0-0.135-0.027-0.229-0.132-0.264
	c0-3.165-4.328-3.519-6.875-3.362l2.336-8.24l0,0c-0.203,0.813-1.883-0.535-2.5-0.33c-0.892,0.297-1.824,1.181-2.895,1.582
	c-2.313,0.225-3.884-1.646-5.591-1.45c-5.007,0.577-9.23,12.591-12.104,12.591c-0.85-1.418-0.034-5.14-1.711-6.13
	c-1.032-0.61-3.014-0.139-4.275-0.527c-3.618-1.115-5.972-2.309-9.867-2.769c-3.306-0.39-4.09-1.953-7.5-1.384
	c-2.173,0.362-9.256-0.516-11.446-1.385c-6.145-2.437-1.974,3.591-1.974,5.867c-0.785,0.59-2.363,0.383-3.223,0
	c-1.433-0.417-1.399-0.275-2.5,0c-0.032,0.229-0.089,0.361-0.329,0.396c-0.164,1.152-2.334,7.081-3.355,7.646
	c-4.08,2.258-0.433,2.68-0.921,6.592c-1.502,0.862-2.218,1.215-4.21,0.725c-0.375-0.092-7.991-4.296-6.118-1.121
	c1.282,2.173,3.421,2.739,3.421,5.538c-0.93,0.31-1.25,2.918-1.25,3.823c0,1.93-2.211,4.7-1.053,6.13
	c0.748,0.923,1.367,1.878,0.329,2.769c-0.591,0.507-2.352,2.287-2.96,2.439l-0.79,2.109c0,3.194-2.755,3.732-3.354,6.855
	c-0.49,2.557-3.383,3.355-5.986,2.834c-0.53-2.652,0.023-5.311-0.657-8.042c-0.011,0-2.791,2.449-3.553,2.769
	c-1.638,0.688-2.633,1.34-4.539,1.252c-2.918-0.133-3.584,1.748-6.184,2.967c-2.722,1.276-3.596,0.569-5.789-0.989
	C399.778,105.642,399.053,106.123,396.271,109.142L396.271,109.142z"/>
            <text transform="matrix(1 0 0 1 452.5166 152.7607)">
                <tspan fill="#FFFFFF" font-size="12px" font-family="Open Sans,sans-serif" font-weight="bold">Bautzen</tspan>
            </text>
        </a>
        <a class="region" id="l"
           xlink:href="https://www.lakossachsen.de/netzwerkkarte/dresden" target="_parent">
            <path fill="#669C64" stroke="#1D1D1B" stroke-width="0.2835" d="
	M422.979,206.703l-1.381-1.78l-2.303-2.505c-1.91,0,0.404,4.202-2.632,4.417c-3.439,0.243-3.334-2.534-5.723-3.099
	c-0.886-0.209-4.069,0.384-3.224-0.791c1.188-1.649,2.782-3.434,3.75-5.208c0.767-1.404-0.696-5.312-1.711-6.328
	c-1.064-1.067-1.902-0.972-2.434-2.703c-0.405-1.32-1.901-2.827-2.829-3.757c-1.709-1.713,0.793-1.985,2.697-2.769
	c1.564-0.644,0.71-3.761-0.592-4.021c-2.238-4.486-9.836,3.889-10.46,1.384c-0.146-0.037-0.131-0.054-0.131-0.198
	c-0.132-0.033-0.889-1.551-1.447-2.109c-0.675-0.675-1.69-0.89-2.237-1.648c-2.318-3.218-2.673,0.609-4.671-1.187
	c-0.494-0.444-1.608-2.183-2.104-2.307c-0.038-0.154-0.358-0.396-0.526-0.396c-0.185-0.277-0.675-0.311-0.986-0.461
	c-1.277,0.109-2.507-0.198-3.816-0.198c0,1.31,0.648,3.027,0.987,4.351c0.692,2.707,2.5,3.111,2.5,6.592
	c0,2.527-1.844,2.241-3.882,2.241c-0.862,0-3.99-1.424-4.407-1.055c-1.053,0.933-1.177,5.711-2.303,6.987
	c-0.856,0.971-2.697,3.38-2.697,4.68c3.001,0.749,0.199,5.968-2.565,2.703c-1.687-1.993-2.962,0.921-5.328-0.263
	c-2.048-1.026-2.939-2.357-5.526-2.505c-1.537-0.088-5.867,0.971-4.868,2.703c1.059,1.837-1.539,4.191-1.973,5.933
	c-0.409,0.082-0.629,0.499-0.921,0.791l-1.135,1.912l0,0c0.483,1.179,0.763,4.654,1.661,5.208c1.528,0.943,2.631,0.38,2.631,2.571
	c0,3.512,10.618,1.78,12.828,1.78c0,1.11-1.358,2.272-0.526,3.625c1.063,1.731,3.261,1.853,4.539,4.285
	c1.156,2.2,4.793,0.2,6.381-0.198c3.562-0.892,5.068,2.045,8.486,2.9c2.013,0.504,2.594,3.634,5.197,4.285
	c0,3.815,2.56,1.494,5.131,2.703c1.465,0.689,2.598-0.699,3.881-1.055c0.911-0.253,0.787-0.863,1.316-1.516
	c0.169-0.208,1.503-1.61,1.645-1.187c0.331-0.01,1.467-0.277,1.578-0.725c0.176-0.025,0.267-0.066,0.461-0.066
	c0.405,1.626,3.069,3.101,4.539,1.78c1.15-1.034,2.58-2.192,3.618-3.362c1.231-1.388,0.855-1.244,0.855-3.032
	c0-2.258,0.015-4.014,2.631-2.703c0.99,0.497,1.223-0.848,1.974-0.989c0.845-0.158,1.398,0.329,2.236,0.329
	c0.363-0.637,0.197-0.882,0.197-1.516c1.703-0.568,4.006-2.579,3.685-4.681c-0.172-1.118-0.724-2.211-0.724-3.362
	c0-1.005,0.46-1.943,0.46-2.966L422.979,206.703L422.979,206.703z"/>
            <text transform="matrix(1 0 0 1 368.0049 212.7563)">
                <tspan fill="#FFFFFF" font-size="12px" font-family="Open Sans,sans-serif" font-weight="bold">Dresden</tspan>
            </text>
        </a>
        <a class="region" id="m"
           xlink:href="https://www.lakossachsen.de/netzwerkkarte/görlitz" target="_parent">

            <path fill="#9DC200" stroke="#1D1D1B" stroke-width="0.2835" d="
	M516.194,57.395c0.665-0.167,0.27-2.691,2.632-3.296l5.657-1.45c2.147-0.55,12.367,0.8,10.986-2.769
	c-1.553-4.011,2.705-0.691,4.144-3.955c0.71-1.61,6.177,1.79,6.382,4.021c0.745,8.105,4.776,3.296,9.999,3.296
	c1.715,0,5.832,1.577,6.71,0.198c1.309-2.057,0.664-4.536,2.763-6.394c1.61-1.426-1.757-7.796,0.132-7.581
	c0.979,0.112,2.374,1.675,3.745,1.961l3.731,1.941l0,0c-2.855,2.444-5.689,5.234-4.582,8.095c0.462,1.195,2.845,1.441,3.025,3.098
	c0.377,3.44-1.438,5.904,2.566,7.911c2.536,1.271,34.928,14.767,35.457,16.019c0.936,2.209,6.23,0.305,5.592,4.021
	c-0.604,3.514,4.883,4.914,3.224,7.646c-0.576,0.947-3.074,0.508-2.435,2.043c4.061,9.739-0.521,19.063,2.105,25.116
	c1.604,3.7,5.351,6.777,6.775,10.349c2.354,5.9,8.66,6.695,7.171,14.173c-1.831,9.189-6.482,14.202-5.329,24.258
	c1.248,10.884-6.907,23.165-6.907,33.356c0,0.959,0.097,1.72-0.131,2.637c-0.286,1.151-1.336,2.208-1.711,3.428
	c-2.928,9.503-7.137,17.672-9.538,27.027c-0.305,1.188-2.258,1.503-2.829,2.9c-1.109,2.709,0.108,6.216-1.25,9.097
	c-0.94,1.995-4.666,2.164-4.802,4.219c-0.012,0.172-0.782,2.639-1.579,3.362c-3.543,3.217-10.428,7.438-9.604,13.052l0,0
	c-0.049,1.046,0.681,4.143,0.229,4.482c-0.329,2.311-3.979,4.469-3.979,7.251c0,3.914-4.26,6.116-7.631,4.021
	c-2.068-1.286-4.811-0.347-6.381-1.516c-1.842-1.371-3.663-4.313-6.118-3.56c-1.326,0.407-3.783-0.893-4.736-1.78
	c-3.335-3.105-10.09,0.623-9.473-6.592c0.249-2.998,2.368-4.594,2.368-7.778c0-2.879,2.698-3.63,4.407-5.339
	c0-1.8-1.04-4.776-1.579-6.395c-1.916,0-5.616,0.019-7.17,1.187c-1.768,1.328-6.722,5.405-8.881,5.405l-0.065-0.132
	c-0.881-0.66-0.066-6.348,0.395-7.449c1.082-2.589,4.473-5.045,4.473-7.844c0-1.578-0.038-3.134,0.79-4.482
	c1.204-1.962,4.651-2.142,1.447-4.549c-2.035-1.529-6.509-4.006-7.039-6.658c-0.101-0.076-0.164-0.099-0.263-0.198h-0.198
	c-0.786,0.788-1.993,1.224-3.092,1.318c-1.192-0.717-3.733,1.452-2.302-1.252c1.018-1.923-0.918-1.945-2.5-2.505
	c-6.341-2.245-3.518-1.731-4.342-7.515c-0.127-0.032-0.166-0.07-0.197-0.198l0,0c0-0.433-0.658-2.108-0.658-2.505
	c-0.088-0.029-0.104-0.087-0.131-0.198l-0.066-0.066c-0.121-0.03-0.102-0.011-0.132-0.132c-0.865-0.216-1.04-4.658-1.513-5.669
	c-1.883-4.028,2.553-4.034,5.789-4.482c2.247-0.312,3.899-2.419,6.447-1.517c0.935,0.332,2.334,0.903,3.092-0.198
	c0.92-1.339,1.238-2.195,1.315-3.889c0.081-1.776,0.673-1.663,1.645-2.637c1.55-1.553-0.917-2.956-1.25-4.219
	c-0.547-2.074,4.463-1.089,5.395-0.857c2.295,0.572,5.188,0.71,1.776-1.978c1.063-0.474,1.911-0.857,3.092-0.857
	c1.225,0,2.021,0.018,2.828-0.989c1.139-1.417-0.743-4.106,1.382-4.813c1.063-0.354,1.957-2.736,2.236-2.769
	c1.941-0.222,2.52,2.637,4.079,2.637c1.144,0,1.118-1.866,1.118-2.637c0-1.088-1.053-2.078-1.053-3.098
	c0.24-0.08,0.656-0.445,0.986-0.527c0.062-0.433,2.45-4.042,2.632-4.087c0.085-0.341,0.233-0.187,0.132-0.593
	c-0.121-0.03-0.102-0.011-0.132-0.132c-0.844,0-2.26-0.883-2.895-1.45c-0.239-0.639-0.848-1.515-1.447-1.714
	c0-0.244,0.035-0.555,0.263-0.593c0.041-0.287,0.543-0.865,0.79-0.989c0-1.04,0.337-3.691-1.053-3.691c-1.812,0-4.231-0.109-5-2.241
	c-0.213-0.593,0.063-2.546-0.328-2.637c-0.227-0.052-1.302-0.306-1.316-0.264h-0.197v0.132c-0.28,0.094-0.76,1.846-1.249,1.846
	c-0.316-0.951-2.172-1.594-2.172-2.703c0-1.114,1.628-2.952,2.105-4.021c1.279-2.866-1.674-4.692-3.815-5.406
	c0-1.138,0.45-2.914,0.592-4.153c0.332-2.887-0.059-1.11-1.578-2.769c-3.091-3.374-1.908-3.495-1.908-7.779
	c-0.831-0.166-2.57-1.079-3.289-1.318c0-0.438,0.292-1.179,0.395-1.582c-0.052-0.157-2.111-0.872-2.434-1.121
	c-0.491-0.378-0.674,0.843-1.053,0.989c-0.663,0.256-3.257-2.834-3.947-3.428c-1.152-0.99-2.299-1.632-2.632-3.296
	c-0.396-1.987,0.725-3.308,0.725-4.944c-0.172,0-3.72,3.817-3.947,4.417c-0.726,1.909-0.085,5.811-3.553,5.142
	c-1.933-0.373-2.116-0.133-3.947,0.527c-1.868,0.673-1.775-3.822-1.775-5.076c0-1.82-0.458-1.619-2.171-1.78l3.157-7.581
	c0.119-0.479,2.295-3.387,0.987-3.823c-0.968-3.878,3.866-6.258,3.354-8.306l-0.065-0.066c-0.084-0.021-0.113-0.045-0.198-0.066
	l-0.065-0.065v-0.264c2.217-0.739,2.379-1.542,2.895-3.56c0.306-1.195,1.762-3.539,1.447-4.482c-1.786,0-3.815,0.338-3.815-1.846
	c0-2.842-0.679-2.166-3.354-2.834c-0.432-1.731-0.396-3.445-0.396-5.339c-0.111-0.028-0.303-0.188-0.328-0.264
	c-1.911-0.477-2.319-5.624-1.711-7.317c0.079-0.218,0.64-1.808,0.329-1.912c0-0.135-0.027-0.229-0.132-0.264
	c0-3.165-4.328-3.519-6.875-3.362L516.194,57.395L516.194,57.395z"/>
            <text transform="matrix(1 0 0 1 565 155)">
                <tspan fill="#FFFFFF" font-size="12px" font-family="Open Sans,sans-serif" font-weight="bold">Görlitz</tspan>
            </text>
        </a>
    </svg>